<?xml version='1.0' encoding='iso-8859-1'?>
<!DOCTYPE svg PUBLIC '-//W3C//DTD SVG 1.1//EN' 'http://www.w3.org/Graphics/SVG/1.1/DTD/svg11.dtd'>
<svg version="1.1" xmlns="http://www.w3.org/2000/svg" viewBox="0 0 480 480" xmlns:xlink="http://www.w3.org/1999/xlink" enable-background="new 0 0 480 480">
  <g>
    <path d="m12.941,271.199c10.025,9.468 25.291,15.192 46.197,17.301-15.07,10.916-25.05,22.14-29.789,33.57-5.221,12.592-4.25,25.709 2.807,37.934 7.056,12.222 17.929,19.62 31.442,21.395 2.136,0.28 4.345,0.42 6.627,0.42 10.825,0 23.297-3.155 37.322-9.423-8.624,19.159-11.278,35.231-8.091,48.647 2.73,11.492 9.644,20.51 20.547,26.804 7.103,4.101 14.36,6.158 21.687,6.158 3.896,0 7.81-0.581 11.73-1.746 13.238-3.931 25.851-14.277 38.154-31.361 1.919,18.501 6.649,32.75 14.176,42.566 8.295,10.818 20.139,16.536 34.254,16.537 14.112,0 25.956-5.717 34.25-16.533 7.526-9.815 12.257-24.064 14.176-42.566 12.279,17.049 24.871,27.385 38.083,31.333 3.945,1.179 7.883,1.767 11.803,1.767 7.326,0 14.584-2.057 21.689-6.158 10.902-6.294 17.815-15.313 20.545-26.804 3.188-13.415 0.531-29.487-8.094-48.646 14.023,6.266 26.493,9.42 37.317,9.42 2.283,0 4.493-0.14 6.629-0.42 13.515-1.775 24.388-9.174 31.444-21.396 7.057-12.222 8.027-25.337 2.808-37.928-4.739-11.431-14.72-22.657-29.794-33.574 20.907-2.111 36.175-7.835 46.2-17.304 8.587-8.11 12.94-18.605 12.94-31.194 0-12.589-4.353-23.084-12.94-31.194-10.026-9.469-25.276-15.205-46.183-17.315 15.063-10.913 25.037-22.133 29.774-33.56 5.221-12.591 4.251-25.708-2.806-37.931-7.057-12.222-17.931-19.62-31.446-21.395-12.267-1.609-26.972,1.419-43.954,9.008 8.627-19.162 11.283-35.235 8.097-48.652-2.73-11.492-9.643-20.511-20.547-26.807-10.881-6.281-22.124-7.763-33.415-4.41-13.237,3.932-25.851,14.277-38.156,31.363-1.919-18.503-6.649-32.753-14.177-42.569-8.294-10.819-20.138-16.536-34.251-16.536-14.112,0-25.956,5.717-34.25,16.533-7.528,9.817-12.259,24.068-14.177,42.574-12.305-17.084-24.917-27.43-38.155-31.362-11.294-3.354-22.537-1.869-33.418,4.412-10.902,6.294-17.814,15.313-20.545,26.803-3.188,13.417-0.53,29.49 8.098,48.651-16.981-7.588-31.686-10.616-43.95-9.005-13.516,1.775-24.39,9.174-31.446,21.397-7.057,12.222-8.027,25.337-2.808,37.928 4.737,11.427 14.714,22.648 29.779,33.561-20.907,2.109-36.153,7.843-46.18,17.311-8.588,8.112-12.943,18.609-12.944,31.201 0,12.589 4.353,23.085 12.941,31.195zm53.261,90.369c-7.418-0.975-12.733-4.649-16.726-11.564-3.993-6.918-4.519-13.36-1.651-20.274 4.229-10.199 18.039-26.456 59.82-45.987 28.25-13.206 59.197-23.147 80.169-29.159 2.49,8.897 7.191,16.876 13.482,23.3-15.693,15.158-39.788,37-65.359,54.87-37.807,26.421-58.795,30.25-69.735,28.814zm173.796-155.761c18.854,0 34.191,15.339 34.191,34.193s-15.338,34.193-34.191,34.193c-18.854,0-34.193-15.339-34.193-34.193s15.339-34.193 34.193-34.193zm-92.272,227.279c-5.984,1.779-11.616,0.964-17.723-2.561-6.117-3.531-9.641-8.014-11.088-14.106-2.305-9.701-0.307-28.444 21.896-62.785 2.169-1.442 4.36-2.934 6.582-4.486 20.814-14.545 40.602-31.535 56-45.742-4.605,20.435-9.424,46.065-11.613,71.363-0.233,2.704-0.432,5.356-0.597,7.959-18.672,36.461-33.923,47.526-43.457,50.358zm110.657,18.211c-4.554,5.938-10.394,8.703-18.378,8.703-7.988,0-13.829-2.767-18.384-8.707-6.718-8.762-13.892-28.852-9.915-74.8 2.689-31.063 9.55-62.828 14.828-83.995 4.307,1.105 8.817,1.694 13.464,1.694 4.648,0 9.161-0.59 13.469-1.696 5.279,21.168 12.142,52.936 14.83,84 3.976,45.952-3.196,66.04-9.914,74.801zm102.707-34.881c-1.447,6.092-4.97,10.575-11.086,14.106-6.117,3.531-11.762,4.342-17.765,2.549-9.554-2.855-24.785-13.956-43.42-50.349-0.165-2.6-0.363-5.248-0.597-7.949-2.189-25.299-7.009-50.93-11.613-71.366 15.395,14.206 35.182,31.193 55.995,45.737 2.224,1.554 4.417,3.046 6.588,4.489 22.204,34.341 24.203,53.083 21.898,62.783zm71.088-86.688c2.866,6.912 2.341,13.353-1.652,20.268-3.993,6.917-9.31,10.592-16.728,11.567-10.951,1.438-31.931-2.395-69.736-28.813-25.572-17.87-49.668-39.712-65.36-54.869 6.29-6.426 10.991-14.405 13.482-23.303 20.971,6.012 51.922,15.955 80.176,29.162 41.78,19.533 55.59,35.789 59.818,45.988zm21.149-106.386c4.553,4.3 6.673,9.592 6.673,16.654s-2.12,12.355-6.674,16.654c-7.247,6.847-24.482,14.487-65.318,12.43-2.334-1.157-4.726-2.31-7.181-3.457-23.003-10.753-47.608-19.395-67.608-25.625 19.999-6.23 44.603-14.872 67.604-25.624 2.458-1.149 4.854-2.303 7.19-3.462 40.835-2.059 58.065,5.584 65.314,12.43zm-39.531-104.911c7.42,0.974 12.736,4.649 16.729,11.564 3.993,6.917 4.518,13.358 1.651,20.271-4.228,10.199-18.04,26.457-59.822,45.989-28.253,13.208-59.203,23.149-80.175,29.162-2.489-8.897-7.191-16.876-13.481-23.301 15.689-15.155 39.781-36.997 65.36-54.871 37.808-26.42 58.799-30.252 69.738-28.814zm-81.523-71.519c5.99-1.779 11.618-0.964 17.722,2.558 6.117,3.533 9.641,8.016 11.088,14.109 2.304,9.699 0.306,28.441-21.895,62.78-2.169,1.443-4.364,2.938-6.586,4.491-20.817,14.547-40.604,31.535-55.997,45.739 4.604-20.435 9.423-46.065 11.611-71.363 0.234-2.705 0.433-5.357 0.598-7.961 18.678-36.458 33.928-47.522 43.459-50.353zm-110.656-18.209c4.553-5.937 10.393-8.703 18.379-8.703 7.986,0 13.826,2.766 18.38,8.704 6.718,8.761 13.892,28.85 9.916,74.8-2.689,31.064-9.55,62.83-14.829,83.998-4.307-1.105-8.818-1.695-13.465-1.695-4.647,0-9.16,0.589-13.467,1.695-5.278-21.168-12.141-52.935-14.829-83.999-3.976-45.95 3.197-66.039 9.915-74.8zm-102.707,34.88c1.447-6.092 4.97-10.574 11.086-14.105 6.105-3.525 11.737-4.338 17.725-2.561 9.533,2.832 24.784,13.896 43.459,50.361 0.165,2.6 0.363,5.248 0.597,7.949 2.189,25.298 7.008,50.929 11.612,71.364-15.395-14.204-35.181-31.192-55.994-45.737-2.223-1.553-4.418-3.049-6.588-4.492-22.203-34.339-24.202-53.08-21.897-62.779zm-71.09,86.689c-2.866-6.912-2.341-13.352 1.652-20.268 3.994-6.917 9.31-10.593 16.73-11.567 10.95-1.437 31.933,2.396 69.736,28.812 25.574,17.871 49.666,39.712 65.357,54.868-6.29,6.425-10.991,14.403-13.481,23.299-20.973-6.012-51.922-15.954-80.174-29.16-41.782-19.53-55.592-35.786-59.82-45.984zm-21.144,73.073c7.248-6.846 24.483-14.49 65.319-12.425 2.332,1.156 4.723,2.308 7.177,3.454 23.005,10.754 47.612,19.396 67.613,25.626-20,6.23-44.605,14.872-67.609,25.625-2.457,1.148-4.85,2.302-7.185,3.459-40.84,2.061-58.069-5.58-65.318-12.426-4.553-4.3-6.673-9.592-6.673-16.654 0-7.065 2.122-12.359 6.676-16.659z"/>
  </g>
</svg>
